<?xml version="1.0" encoding="UTF-8" standalone="no"?>
<svg
   version="1.1"
   width="1661.5287"
   height="244.38599"
   id="svg24"
   sodipodi:docname="alexandrite_logotype.svg"
   inkscape:version="1.3.2 (091e20e, 2023-11-25, custom)"
   xmlns:inkscape="http://www.inkscape.org/namespaces/inkscape"
   xmlns:sodipodi="http://sodipodi.sourceforge.net/DTD/sodipodi-0.dtd"
   xmlns="http://www.w3.org/2000/svg"
   xmlns:svg="http://www.w3.org/2000/svg">
  <sodipodi:namedview
     id="namedview24"
     pagecolor="#505050"
     bordercolor="#ffffff"
     borderopacity="1"
     inkscape:showpageshadow="0"
     inkscape:pageopacity="0"
     inkscape:pagecheckerboard="1"
     inkscape:deskcolor="#505050"
     showgrid="false"
     inkscape:zoom="2.4374003"
     inkscape:cx="180.72534"
     inkscape:cy="128.21037"
     inkscape:window-width="1854"
     inkscape:window-height="1041"
     inkscape:window-x="3833"
     inkscape:window-y="2"
     inkscape:window-maximized="0"
     inkscape:current-layer="svg24" />
  <defs
     id="defs1">
    <linearGradient
       id="swatch15"
       inkscape:swatch="solid">
      <stop
         style="stop-color:#7465b6;stop-opacity:1;"
         offset="0"
         id="stop15" />
    </linearGradient>
    <clipPath
       id="JuVctTbOhQhW">
      <path
         fill="none"
         stroke="none"
         d="M 0,0 H 1519 V 921 H 0 Z"
         id="path1" />
    </clipPath>
  </defs>
  <g
     inkscape:groupmode="layer"
     id="layer3"
     inkscape:label="Daylight"
     style="display:inline;stroke:#ffffff;stroke-opacity:0"
     transform="translate(-436.10743,-343.5138)">
    <path
       id="path61"
       style="fill:#22c1c1;fill-opacity:1;stroke:#ffffff;stroke-width:5;stroke-linecap:round;stroke-linejoin:round;stroke-dasharray:none;stroke-opacity:0;paint-order:markers fill stroke"
       d="m 497.10156,407.02148 c 6.0625,-3.1595 12.125,-6.31901 18.1875,-9.47851 -11.5358,0 -23.07161,0 -34.60742,0 5.47331,3.1595 10.94662,6.31901 16.41992,9.47851 z" />
    <path
       id="path60"
       style="fill:#22c1c1;fill-opacity:1;stroke:#ffffff;stroke-width:5;stroke-linecap:round;stroke-linejoin:round;stroke-dasharray:none;stroke-opacity:0;paint-order:markers fill stroke"
       d="m 493.98438,434.44336 c -0.29558,-6.83073 -0.59115,-13.66146 -0.88672,-20.49219 -5.47266,-3.1595 -10.94532,-6.31901 -16.41797,-9.47851 5.76823,9.99023 11.53646,19.98046 17.30469,29.9707 z" />
    <path
       id="path59"
       style="fill:#22c1c1;fill-opacity:1;stroke:#ffffff;stroke-width:5;stroke-linecap:round;stroke-linejoin:round;stroke-dasharray:none;stroke-opacity:0;paint-order:markers fill stroke"
       d="m 503.94922,479.73828 c 3.66081,2.33073 7.32161,4.66146 10.98242,6.99219 -3.84831,-6.66602 -7.69661,-13.33203 -11.54492,-19.99805 0.1875,4.33529 0.375,8.67057 0.5625,13.00586 z" />
    <path
       id="path49"
       style="fill:#22c1c1;fill-opacity:1;stroke:#ffffff;stroke-width:5;stroke-linecap:round;stroke-linejoin:round;stroke-dasharray:none;stroke-opacity:0;paint-order:markers fill stroke"
       d="m 501.10547,413.95508 c 0.51107,11.82682 1.02213,23.65364 1.5332,35.48047 8.96615,15.53125 17.93229,31.0625 26.89844,46.59375 1.83659,1.16797 3.67318,2.33593 5.50977,3.5039 19.04817,-32.99153 38.09635,-65.98307 57.14453,-98.97461 -1.92839,-1.0052 -3.85677,-2.01041 -5.78516,-3.01562 -17.9375,0 -35.875,0 -53.8125,0 -10.49609,5.4707 -20.99219,10.9414 -31.48828,16.41211 z" />
    <path
       id="path47"
       style="fill:#22c1c1;fill-opacity:1;stroke:#ffffff;stroke-width:5;stroke-linecap:round;stroke-linejoin:round;stroke-dasharray:none;stroke-opacity:0;paint-order:markers fill stroke"
       d="m 547.94727,389.54297 c 7.70182,0 15.40364,0 23.10546,0 -3.85091,-2.00716 -7.70182,-4.01432 -11.55273,-6.02149 -3.85091,2.00717 -7.70182,4.01433 -11.55273,6.02149 z" />
    <path
       id="path46"
       style="fill:#22c1c1;fill-opacity:1;stroke:#ffffff;stroke-width:5;stroke-linecap:round;stroke-linejoin:round;stroke-miterlimit:10;stroke-dasharray:none;stroke-opacity:0;paint-order:markers fill stroke"
       d="m 474.07422,389.54297 c 18.85547,0 37.71094,0 56.5664,0 6.73568,-3.51042 13.47136,-7.02083 20.20704,-10.53125 -16.07552,-8.37761 -32.15105,-16.75521 -48.22657,-25.13281 -9.51562,11.88802 -19.03125,23.77604 -28.54687,35.66406 z" />
    <path
       id="path44"
       style="fill:#22c1c1;fill-opacity:1;stroke:#ffffff;stroke-width:5;stroke-linecap:round;stroke-linejoin:round;stroke-miterlimit:10;stroke-dasharray:none;stroke-opacity:0;paint-order:markers fill stroke"
       d="m 488.77539,356.50391 c -15.98047,4.77183 -31.48861,11.13906 -46.16992,19.05468 7.39062,4.26693 14.78125,8.53386 22.17187,12.80079 8.653,-10.81055 17.30599,-21.6211 25.95899,-32.43165 -0.65365,0.19206 -1.30729,0.38412 -1.96094,0.57618 z" />
    <path
       id="path43"
       style="fill:#22c1c1;fill-opacity:1;stroke:#ffffff;stroke-width:5;stroke-linecap:round;stroke-linejoin:round;stroke-miterlimit:10;stroke-dasharray:none;stroke-opacity:0;paint-order:markers fill stroke"
       d="m 438.62109,383.0293 c 0.034,0.92621 0.0792,2.20013 0.11836,3.11354 0.69293,15.81179 3.00864,31.68149 6.71563,46.97435 0.1257,1.0225 0.33254,0.7816 0.57848,-0.0683 4.91329,-12.58662 9.82658,-25.17325 14.73988,-37.75987 -7.38867,-4.26627 -14.77735,-8.53255 -22.16602,-12.79883 0.005,0.17969 0.009,0.35938 0.0137,0.53907 z" />
    <path
       id="path42"
       style="fill:#22c1c1;fill-opacity:1;stroke:#ffffff;stroke-width:5;stroke-linecap:round;stroke-linejoin:round;stroke-dasharray:none;stroke-opacity:0;paint-order:markers fill stroke"
       d="m 449.83789,445.30273 c 15.29232,9.73243 30.58464,19.46485 45.87695,29.19727 -0.32747,-7.58659 -0.65494,-15.17318 -0.98242,-22.75977 -9.42773,-16.32877 -18.85547,-32.65755 -28.2832,-48.98632 -5.53711,14.18294 -11.07422,28.36588 -16.61133,42.54882 z" />
    <path
       id="path40"
       style="fill:#22c1c1;fill-opacity:1;stroke:#ffffff;stroke-width:5;stroke-linecap:round;stroke-linejoin:round;stroke-miterlimit:10;stroke-dasharray:none;stroke-opacity:0;paint-order:markers fill stroke"
       d="m 453.41211,459.48047 c 10.15989,27.93083 25.40735,54.006 44.82572,76.51119 0.31764,0.26603 0.004,-1.06838 0.072,-1.43392 -0.72438,-16.76794 -1.44875,-33.53589 -2.17313,-50.30383 -14.61198,-9.29948 -29.22396,-18.59896 -43.83594,-27.89844 0.37044,1.04167 0.74089,2.08333 1.11133,3.125 z" />
    <path
       id="path39"
       style="fill:#22c1c1;fill-opacity:1;stroke:#ffffff;stroke-width:5;stroke-linecap:round;stroke-linejoin:round;stroke-miterlimit:10;stroke-dasharray:none;stroke-opacity:0;paint-order:markers fill stroke"
       d="m 506.71875,543.82227 c 0.84505,0.1289 1.6901,0.25781 2.53516,0.38671 6.47656,-11.2194 12.95312,-22.4388 19.42968,-33.6582 -1.69791,-2.94206 -3.39583,-5.88411 -5.09375,-8.82617 -6.40625,-4.07747 -12.8125,-8.15495 -19.21875,-12.23242 0.78256,18.11002 1.56511,36.22005 2.34766,54.33008 z" />
    <path
       id="path26"
       style="fill:#22c1c1;fill-opacity:1;stroke:#ffffff;stroke-width:5;stroke-linecap:round;stroke-linejoin:round;stroke-miterlimit:10;stroke-dasharray:none;stroke-opacity:0;paint-order:markers fill stroke"
       d="m 568.15234,379.01172 c 6.73568,3.51042 13.47136,7.02083 20.20704,10.53125 3.39713,0 6.79427,0 10.1914,0 6.47721,-11.22005 12.95443,-22.44011 19.43164,-33.66016 -0.5345,-0.66797 -1.06901,-1.33593 -1.60351,-2.0039 -16.07552,8.3776 -32.15105,16.7552 -48.22657,25.13281 z" />
    <path
       id="path24"
       style="fill:#22c1c1;fill-opacity:1;stroke:#ffffff;stroke-width:5;stroke-linecap:round;stroke-linejoin:round;stroke-miterlimit:10;stroke-dasharray:none;stroke-opacity:0;paint-order:markers fill stroke"
       d="m 555.95898,346.0332 c -8.24163,0.14163 -16.57311,0.69182 -24.82272,1.68474 -3.25237,0.38984 -6.70729,0.87019 -10.02923,1.40464 -2.48725,0.39034 -5.14036,0.8736 -7.69883,1.35789 15.36394,8.00716 30.72787,16.01432 46.0918,24.02148 15.36198,-8.00651 30.72396,-16.01302 46.08594,-24.01953 -10.42109,-2.01257 -20.96333,-3.36435 -31.57617,-4.02539 -1.99444,-0.11642 -4.18921,-0.23 -6.26375,-0.29523 -3.92692,-0.14818 -7.85784,-0.17197 -11.78704,-0.1286 z" />
  </g>
  <g
     inkscape:groupmode="layer"
     id="layer4"
     inkscape:label="Incandescent"
     style="display:inline"
     transform="translate(-436.10743,-343.5138)">
    <path
       id="path57"
       style="fill:#ad65ad;fill-opacity:1;stroke:#ffffff;stroke-width:5;stroke-linecap:round;stroke-linejoin:round;stroke-dasharray:none;stroke-opacity:0;paint-order:markers fill stroke"
       d="m 555.5,540.99219 c 0,-6.31966 0,-12.63933 0,-18.95899 -5.76758,-3.66992 -11.53516,-7.33984 -17.30273,-11.00976 5.76757,9.98958 11.53515,19.97916 17.30273,29.96875 z" />
    <path
       id="path56"
       style="fill:#ad65ad;fill-opacity:1;stroke:#ffffff;stroke-width:5;stroke-linecap:round;stroke-linejoin:round;stroke-dasharray:none;stroke-opacity:0;paint-order:markers fill stroke"
       d="m 517.74219,545.50391 c 11.37695,1.73632 22.7539,3.47265 34.13086,5.20898 -6.18946,-10.7207 -12.37891,-21.44141 -18.56836,-32.16211 -5.1875,8.98438 -10.375,17.96875 -15.5625,26.95313 z" />
    <path
       id="path55"
       style="fill:#ad65ad;fill-opacity:1;stroke:#ffffff;stroke-width:5;stroke-linecap:round;stroke-linejoin:round;stroke-dasharray:none;stroke-opacity:0;paint-order:markers fill stroke"
       d="m 563.5,522.0332 c 0,6.31966 0,12.63933 0,18.95899 5.76758,-9.99024 11.53516,-19.98047 17.30273,-29.97071 -5.76757,3.67058 -11.53515,7.34115 -17.30273,11.01172 z" />
    <path
       id="path54"
       style="fill:#ad65ad;fill-opacity:1;stroke:#ffffff;stroke-width:5;stroke-linecap:round;stroke-linejoin:round;stroke-dasharray:none;stroke-opacity:0;paint-order:markers fill stroke"
       d="m 604.06836,486.73047 c 3.66081,-2.33073 7.32161,-4.66146 10.98242,-6.99219 0.1875,-4.33529 0.375,-8.67057 0.5625,-13.00586 -3.84831,6.66602 -7.69661,13.33203 -11.54492,19.99805 z" />
    <path
       id="path53"
       style="fill:#ad65ad;fill-opacity:1;stroke:#ffffff;stroke-width:5;stroke-linecap:round;stroke-linejoin:round;stroke-dasharray:none;stroke-opacity:0;paint-order:markers fill stroke"
       d="m 607.78906,389.54297 c 12.37891,0 24.75782,0 37.13672,0 -7.19141,-8.98438 -14.38281,-17.96875 -21.57422,-26.95313 -5.1875,8.98438 -10.375,17.96875 -15.5625,26.95313 z" />
    <path
       id="path52"
       style="fill:#ad65ad;fill-opacity:1;stroke:#ffffff;stroke-width:5;stroke-linecap:round;stroke-linejoin:round;stroke-dasharray:none;stroke-opacity:0;paint-order:markers fill stroke"
       d="m 625.90234,413.95117 c -0.29557,6.83073 -0.59114,13.66146 -0.88672,20.49219 5.76823,-9.99024 11.53646,-19.98047 17.30469,-29.9707 -5.47265,3.1595 -10.94531,6.31901 -16.41797,9.47851 z" />
    <path
       id="path50"
       style="display:inline;fill:#ad65ad;fill-opacity:1;stroke:#ffffff;stroke-width:5;stroke-linecap:round;stroke-linejoin:round;stroke-dasharray:none;stroke-opacity:0;paint-order:markers fill stroke"
       d="m 621.89844,407.02148 c 5.4733,-3.1595 10.94661,-6.31901 16.41992,-9.47851 -11.53451,0 -23.06901,0 -34.60352,0 6.0612,3.1595 12.1224,6.31901 18.1836,9.47851 z" />
    <path
       id="path51"
       style="display:inline;fill:#ad65ad;fill-opacity:1;stroke:#ffffff;stroke-width:5;stroke-linecap:round;stroke-linejoin:round;stroke-dasharray:none;stroke-opacity:0;paint-order:markers fill stroke"
       d="m 541.80078,503.83398 c 5.89974,3.75391 11.79948,7.50782 17.69922,11.26172 9.98763,-6.35547 19.97526,-12.71093 29.96289,-19.0664 8.96615,-15.53125 17.93229,-31.0625 26.89844,-46.59375 0.51107,-11.82683 1.02213,-23.65365 1.5332,-35.48047 -6.20052,-3.23242 -12.40104,-6.46485 -18.60156,-9.69727 -19.16406,33.19206 -38.32813,66.38412 -57.49219,99.57617 z" />
    <path
       id="path36"
       style="fill:#ad65ad;fill-opacity:1;stroke:#ffffff;stroke-width:5;stroke-linecap:round;stroke-linejoin:round;stroke-miterlimit:10;stroke-dasharray:none;stroke-opacity:0;paint-order:markers fill stroke"
       d="m 514.55273,553.29297 c 2.65352,2.53122 5.35343,5.00657 8.04883,7.36914 10.27232,8.9854 21.2758,17.13928 32.89844,24.29492 0,-8.53385 0,-17.06771 0,-25.60156 -13.72461,-2.09375 -27.44922,-4.1875 -41.17383,-6.28125 0.0755,0.0729 0.15104,0.14583 0.22656,0.21875 z" />
    <path
       id="path35"
       style="fill:#ad65ad;fill-opacity:1;stroke:#ffffff;stroke-width:5;stroke-linecap:round;stroke-linejoin:round;stroke-miterlimit:10;stroke-dasharray:none;stroke-opacity:0;paint-order:markers fill stroke"
       d="m 563.5,559.35547 c 0,8.5319 0,17.0638 0,25.5957 14.7795,-9.10508 28.54788,-19.83726 41.06445,-31.86133 -13.68815,2.08855 -27.3763,4.17709 -41.06445,6.26563 z" />
    <path
       id="path34"
       style="fill:#ad65ad;fill-opacity:1;stroke:#ffffff;stroke-width:5;stroke-linecap:round;stroke-linejoin:round;stroke-dasharray:none;stroke-opacity:0;paint-order:markers fill stroke"
       d="m 595.4082,501.72461 c -9.42773,16.33008 -18.85547,32.66016 -28.2832,48.99023 15.05208,-2.29752 30.10417,-4.59505 45.15625,-6.89257 0.78255,-18.11003 1.5651,-36.22006 2.34766,-54.33008 -6.4069,4.07747 -12.81381,8.15495 -19.22071,12.23242 z" />
    <path
       id="path32"
       style="fill:#ad65ad;fill-opacity:1;stroke:#ffffff;stroke-width:5;stroke-linecap:round;stroke-linejoin:round;stroke-miterlimit:10;stroke-dasharray:none;stroke-opacity:0;paint-order:markers fill stroke"
       d="m 622.86328,484.25391 c -0.74739,17.30208 -1.49479,34.60416 -2.24219,51.90625 20.19517,-23.38447 35.92235,-50.61106 46.06641,-79.79688 -14.60807,9.29688 -29.21615,18.59375 -43.82422,27.89063 z" />
    <path
       id="path31"
       style="fill:#ad65ad;fill-opacity:1;stroke:#ffffff;stroke-width:5;stroke-linecap:round;stroke-linejoin:round;stroke-dasharray:none;stroke-opacity:0;paint-order:markers fill stroke"
       d="m 624.26758,451.74023 c -0.32748,7.58659 -0.65495,15.17318 -0.98242,22.75977 15.29231,-9.73242 30.58463,-19.46484 45.87695,-29.19727 -5.53711,-14.18294 -11.07422,-28.36588 -16.61133,-42.54882 -9.42773,16.32877 -18.85547,32.65755 -28.2832,48.98632 z" />
    <path
       id="path29"
       style="fill:#ad65ad;fill-opacity:1;stroke:#ffffff;stroke-width:5;stroke-linecap:round;stroke-linejoin:round;stroke-miterlimit:10;stroke-dasharray:none;stroke-opacity:0;paint-order:markers fill stroke"
       d="m 658.22656,395.28906 c 5.03516,12.89974 10.07032,25.79948 15.10547,38.69922 1.87776,-7.6354 3.40397,-15.36014 4.54688,-23.07422 1.14734,-7.76395 1.92941,-15.61606 2.31448,-23.40421 0.0868,-1.67303 0.15138,-3.34714 0.20505,-5.02157 -7.39063,4.26693 -14.78125,8.53386 -22.17188,12.80078 z" />
    <path
       id="path28"
       style="fill:#ad65ad;fill-opacity:1;stroke:#ffffff;stroke-width:5;stroke-linecap:round;stroke-linejoin:round;stroke-miterlimit:10;stroke-dasharray:none;stroke-opacity:0;paint-order:markers fill stroke"
       d="m 654.22266,388.35938 c 7.39127,-4.26693 14.78255,-8.53386 22.17382,-12.80079 -4.52432,-2.43472 -9.12373,-4.7284 -13.7871,-6.88476 -0.90713,-0.4126 -2.06617,-0.93232 -3.07009,-1.38608 -8.41922,-3.74461 -17.17627,-7.04096 -25.88499,-9.79361 -1.80234,-0.5609 -3.71936,-1.14797 -5.46094,-1.65234 8.67643,10.83919 17.35286,21.67838 26.0293,32.51758 z" />
  </g>
  <g
     inkscape:groupmode="layer"
     id="layer5"
     inkscape:label="White"
     style="fill:#7465b6;fill-opacity:0"
     transform="translate(-436.10743,-343.5138)">
    <path
       d="m 533.30469,510.55078 3.11718,-5.40039 -9.85742,-6.27344 z"
       style="fill:#7465b6;fill-opacity:0;stroke:#ffffff;stroke-width:5;stroke-linecap:round;stroke-linejoin:round;stroke-dasharray:none;stroke-opacity:0.00248138;paint-order:markers fill stroke"
       id="path58" />
    <path
       d="m 587.38281,393.54297 10.35938,5.39844 3.11718,-5.39844 z"
       style="fill:#7465b6;fill-opacity:0;stroke:#ffffff;stroke-width:5;stroke-linecap:round;stroke-linejoin:round;stroke-dasharray:none;stroke-opacity:0.00248138;paint-order:markers fill stroke"
       id="path48" />
    <path
       d="m 503.05664,547.30859 c -0.0678,-0.0716 -0.13345,-0.14509 -0.20117,-0.21679 l 0.008,0.1875 z"
       style="fill:#7465b6;fill-opacity:0;stroke:#ffffff;stroke-width:5;stroke-linecap:round;stroke-linejoin:round;stroke-miterlimit:10;stroke-dasharray:none;stroke-opacity:0.00248138;paint-order:markers fill stroke"
       id="path38" />
    <path
       d="m 508.69531,553.17578 2.65625,-4.60156 -8.29492,-1.26563 c 1.86478,1.9698 3.70693,3.95558 5.63867,5.86719 z"
       style="fill:#7465b6;fill-opacity:0;stroke:#ffffff;stroke-width:5;stroke-linecap:round;stroke-linejoin:round;stroke-miterlimit:10;stroke-dasharray:none;stroke-opacity:0.00248138;paint-order:markers fill stroke"
       id="path37" />
    <path
       d="m 617.56836,348.9668 5.24414,6.55273 2.6582,-4.60351 c -2.62177,-0.71724 -5.26365,-1.3191 -7.90234,-1.94922 z"
       style="fill:#7465b6;fill-opacity:0;stroke:#ffffff;stroke-width:5;stroke-linecap:round;stroke-linejoin:round;stroke-miterlimit:10;stroke-dasharray:none;stroke-opacity:0.00248138;paint-order:markers fill stroke"
       id="path27" />
    <path
       d="m 617.2793,348.90039 c 0.0962,0.0229 0.19286,0.0434 0.28906,0.0664 l -0.12305,-0.15235 z"
       style="fill:#7465b6;fill-opacity:0;stroke:#ffffff;stroke-width:5;stroke-linecap:round;stroke-linejoin:round;stroke-miterlimit:10;stroke-dasharray:none;stroke-opacity:0.00248138;paint-order:markers fill stroke"
       id="path25" />
  </g>
  <text
     xml:space="preserve"
     style="font-size:238.788px;display:inline;fill:#777777;fill-opacity:1;stroke:#ffffff;stroke-width:4.97476e-06;stroke-linecap:round;stroke-linejoin:round;stroke-opacity:0;paint-order:markers fill stroke"
     x="249.57599"
     y="241.99811"
     id="text1"><tspan
       sodipodi:role="line"
       id="tspan1"
       x="249.57599"
       y="241.99811"
       style="font-style:normal;font-variant:normal;font-weight:normal;font-stretch:normal;font-family:'Libre Baskerville';-inkscape-font-specification:'Libre Baskerville';fill:#777777;fill-opacity:1;stroke-width:4.97476e-06">Alexandrite</tspan></text>
</svg>
